<mxfile host="app.diagrams.net" modified="2023-10-05T23:22:05.389Z" agent="Mozilla/5.0 (Windows NT 10.0; Win64; x64) AppleWebKit/537.36 (KHTML, like Gecko) Chrome/117.0.0.0 Safari/537.36" version="22.0.3" etag="fz1jU7DXIoyHbLB8fGFW" type="github">
  <diagram name="PÃ¡gina-1" id="vjvozxmndt2A7qDxiL51">
    <mxGraphModel>
      <root>
        <mxCell id="0" />
        <mxCell id="1" parent="0" />
      </root>
    </mxGraphModel>
  </diagram>
</mxfile>
